# xmcd CD database file
#
# Track frame offsets:
#	150
#	14175
#	27210
#	40257
#	55020
#	68545
#	81360
#	94575
#	108502
#	123230
#	136357
#	149445
#	161850
#	175857
#	189695
#	202752
#	216597
#	228257
#	240507
#	252497
#
# Disc length: 3525 seconds
#
# Revision: 4
# Processed by: cddbd v1.5.2PL0 Copyright (c) Steve Scherf et al.
# Submitted via: CDex 1.70beta2
#
DISCID=1e0dc314
DTITLE=The Carter Family - Can The Circle Be Unbroken
DYEAR=2000
DGENRE=Country
TTITLE0=Can The Circle Be Unbroken (Bye And Bye)
TTITLE1=Lulu Walls
TTITLE2=My Clinch Mountain Home
TTITLE3=Wildwood Flower
TTITLE4=Worried Man Blues
TTITLE5=Keep On The Sunny Side
TTITLE6=Gospel Ship
TTITLE7=My Texas Girl
TTITLE8=Sinking In The Lonesome Sea
TTITLE9=Cannon Ball Blues
TTITLE10=I'm Thinking Tonight Of My Blue Eyes
TTITLE11=River Of Jordan
TTITLE12=The Storms Are On The Ocean
TTITLE13=On The Rock Where Moses Stood
TTITLE14=The Little Black Train
TTITLE15=Single Girl, Married Girl
TTITLE16=Kissing Is A Crime
TTITLE17=Blackie's Gunman
TTITLE18=My Home Among The Hills
TTITLE19=Black Jack David
EXTD=YEAR: 2000
EXTT0=
EXTT1=
EXTT2=
EXTT3=
EXTT4=
EXTT5=
EXTT6=
EXTT7=
EXTT8=
EXTT9=
EXTT10=
EXTT11=
EXTT12=
EXTT13=
EXTT14=
EXTT15=
EXTT16=
EXTT17=
EXTT18=
EXTT19=
PLAYORDER=
